HIERARCHY
ROOT Hips
{
 OFFSET 0.000000 0.000000 0.000000
 CHANNELS 6 Xposition Yposition Zposition Yrotation Xrotation Zrotation
 JOINT Chest
 {
  OFFSET 0.000000 9.585900 0.002600
  CHANNELS 3 Yrotation Xrotation Zrotation
  JOINT Chest2
  {
   OFFSET 0.000000 9.601200 -0.005300
   CHANNELS 3 Yrotation Xrotation Zrotation
   JOINT Chest3
   {
    OFFSET 0.000000 9.561800 0.000000
    CHANNELS 3 Yrotation Xrotation Zrotation
    JOINT Chest4
    {
     OFFSET 0.000000 9.552100 0.000000
     CHANNELS 3 Yrotation Xrotation Zrotation
     JOINT Neck
     {
      OFFSET 0.000000 14.453000 0.000000
      CHANNELS 3 Yrotation Xrotation Zrotation
      JOINT Head
      {
       OFFSET 0.000000 8.936500 -0.011300
       CHANNELS 3 Yrotation Xrotation Zrotation
       End Site
       {
        OFFSET 0.000000 17.073600 -0.006000
       }
      }
     }
     JOINT RightCollar
     {
      OFFSET -2.921100 9.558500 0.000000
      CHANNELS 3 Yrotation Xrotation Zrotation
      JOINT RightShoulder
      {
       OFFSET -13.519700 0.000000 0.000000
       CHANNELS 3 Yrotation Xrotation Zrotation
       JOINT RightElbow
       {
        OFFSET 0.000000 -29.696600 0.000000
        CHANNELS 3 Yrotation Xrotation Zrotation
        JOINT RightWrist
        {
         OFFSET 0.000000 -24.004700 0.000000
         CHANNELS 3 Yrotation Xrotation Zrotation
         End Site
         {
          OFFSET 0.000000 -17.728500 0.000000
         }
        }
       }
      }
     }
     JOINT LeftCollar
     {
      OFFSET 2.921100 9.558500 0.000000
      CHANNELS 3 Yrotation Xrotation Zrotation
      JOINT LeftShoulder
      {
       OFFSET 13.519700 0.000000 0.000000
       CHANNELS 3 Yrotation Xrotation Zrotation
       JOINT LeftElbow
       {
        OFFSET 0.000000 -29.696600 0.000000
        CHANNELS 3 Yrotation Xrotation Zrotation
        JOINT LeftWrist
        {
         OFFSET 0.000000 -24.004700 0.000000
         CHANNELS 3 Yrotation Xrotation Zrotation
         End Site
         {
          OFFSET 0.000000 -17.728500 0.000000
         }
        }
       }
      }
     }
    }
   }
  }
 }
 JOINT RightHip
 {
  OFFSET -7.771700 -0.012900 -0.001300
  CHANNELS 3 Yrotation Xrotation Zrotation
  JOINT RightKnee
  {
   OFFSET 0.000000 -40.869800 0.001200
   CHANNELS 3 Yrotation Xrotation Zrotation
   JOINT RightAnkle
   {
    OFFSET 0.000000 -39.717900 0.002100
    CHANNELS 3 Yrotation Xrotation Zrotation
    JOINT RightToe
    {
     OFFSET 0.000000 -4.965400 11.033500
     CHANNELS 3 Yrotation Xrotation Zrotation
     End Site
     {
      OFFSET 0.000000 -1.423100 5.872300
     }
    }
   }
  }
 }
 JOINT LeftHip
 {
  OFFSET 7.771700 -0.012900 -0.001300
  CHANNELS 3 Yrotation Xrotation Zrotation
  JOINT LeftKnee
  {
   OFFSET 0.000000 -40.869800 0.001200
   CHANNELS 3 Yrotation Xrotation Zrotation
   JOINT LeftAnkle
   {
    OFFSET 0.000000 -39.717900 0.002100
    CHANNELS 3 Yrotation Xrotation Zrotation
    JOINT LeftToe
    {
     OFFSET 0.000000 -4.965400 11.033500
     CHANNELS 3 Yrotation Xrotation Zrotation
     End Site
     {
      OFFSET 0.000000 -1.423100 5.872300
     }
    }
   }
  }
 }
}
MOTION
Frames: 6
Frame Time: 0.008333
-73.035134 46.832589 20.202264 176.454927 -34.239033 -0.628755 -0.577253 15.011151 2.111600 -0.496376 8.586282 1.406048 -0.585899 10.755594 1.756283 -0.499249 8.565164 1.401321 -1.252990 19.049584 -4.154541 -0.992540 -0.389810 -7.210792 6.608657 4.126768 -4.505675 1.883359 -20.048586 -9.436290 36.182004 -62.151221 -21.611040 11.621082 1.568500 -38.383702 -3.642821 1.850550 -3.149417 2.786832 -22.130251 -2.448382 -81.846898 -48.212466 52.439846 -11.524729 10.263482 32.003975 32.987804 -44.993992 -32.443677 -115.513259 66.019204 -106.518499 4.158355 -5.063042 5.983191 -0.012412 -0.384599 0.007445 -13.659288 -52.886287 12.945242 93.899452 78.904050 94.599706 -5.332778 1.038605 -10.989078 0.140841 0.324495 0.004283
-73.032460 46.830849 20.201408 176.450920 -34.244091 -0.639516 -0.573650 14.990107 2.119323 -0.497455 8.579913 1.403107 -0.584419 10.767232 1.757253 -0.501272 8.549871 1.397341 -1.344511 19.085359 -4.163551 -1.155661 -0.307330 -7.193694 6.628630 4.081256 -4.494153 1.917689 -20.031259 -9.466837 35.988007 -62.105696 -21.409157 11.603481 1.549607 -38.393709 -3.662976 1.846390 -3.147403 2.767916 -22.130141 -2.458173 -81.783364 -48.170448 52.388984 -11.496268 10.231892 31.994480 32.980693 -44.996987 -32.414052 -115.499713 66.026721 -106.516009 4.163488 -5.059184 5.971583 -0.029287 -0.385704 0.025525 -13.673938 -52.879610 12.959034 93.902713 78.903644 94.626357 -5.350698 1.033344 -11.013695 0.167080 0.324078 0.015639
-73.033596 46.829640 20.199725 176.449603 -34.255880 -0.626723 -0.578465 14.976444 2.101038 -0.498520 8.574254 1.400288 -0.586073 10.756735 1.754043 -0.497412 8.579680 1.403124 -1.391413 19.097777 -4.168459 -1.365051 -0.217229 -7.160018 6.636200 4.052396 -4.489715 1.964129 -20.054893 -9.505350 35.789989 -62.062535 -21.206454 11.587704 1.535928 -38.397223 -3.682656 1.820423 -3.147721 2.713311 -22.167489 -2.488542 -81.643177 -48.104930 52.294558 -11.467724 10.189448 31.975516 32.986958 -44.981139 -32.415316 -115.494464 66.037009 -106.520057 4.156598 -5.053825 5.969736 -0.029513 -0.388064 0.025246 -13.671680 -52.871272 12.935529 93.914191 78.891800 94.639332 -5.347874 1.036538 -11.020386 0.159841 0.322237 0.022921
-73.031461 46.828816 20.198112 176.450635 -34.271492 -0.632802 -0.580729 14.967065 2.098504 -0.497972 8.576881 1.401057 -0.588900 10.741939 1.749507 -0.498715 8.574233 1.400108 -1.502149 19.149807 -4.171502 -1.505604 -0.130673 -7.135432 6.648916 4.054324 -4.473979 1.999606 -20.061901 -9.534729 35.632766 -62.034247 -21.040395 11.573329 1.528100 -38.395149 -3.691441 1.838333 -3.141665 2.677782 -22.198853 -2.507235 -81.518588 -48.077304 52.207752 -11.446615 10.134112 31.948615 32.979631 -44.973860 -32.381231 -115.484740 66.021887 -106.511747 4.132789 -5.051412 5.949282 -0.016319 -0.385782 0.047487 -13.696975 -52.855626 12.940473 93.932162 78.877109 94.657794 -5.340792 1.043549 -11.014579 0.149061 0.319188 0.016955
-73.026409 46.828152 20.196763 176.445180 -34.289289 -0.651207 -0.571963 14.972323 2.115784 -0.497030 8.582156 1.403071 -0.592581 10.712887 1.740798 -0.502630 8.527964 1.384062 -1.605146 19.247724 -4.159739 -1.643648 -0.038708 -7.107386 6.659242 4.123947 -4.440589 2.011743 -20.066760 -9.544182 35.557124 -62.027797 -20.946139 11.566320 1.522666 -38.396866 -3.688973 1.914822 -3.123718 2.644877 -22.236903 -2.518585 -81.405069 -48.080446 52.126604 -11.426883 10.078256 31.920633 32.972608 -44.980104 -32.311137 -115.471846 65.995981 -106.505402 4.082191 -5.039554 5.925377 0.009756 -0.387058 0.075397 -13.772466 -52.830102 12.985416 93.983399 78.853273 94.698666 -5.315102 1.045932 -11.014915 0.131556 0.325920 0.020324
-73.026876 46.828013 20.194401 176.432891 -34.314005 -0.631736 -0.566826 14.983785 2.097000 -0.497922 8.564502 1.396574 -0.596645 10.679800 1.728477 -0.500429 8.551730 1.392277 -1.687492 19.303843 -4.155952 -1.797620 0.061678 -7.074171 6.669365 4.125053 -4.427449 2.105547 -20.135563 -9.609882 35.265999 -61.953148 -20.677928 11.571383 1.520485 -38.413545 -3.707395 1.924492 -3.117996 2.635641 -22.249048 -2.523902 -81.296296 -48.094557 52.048487 -11.400251 10.026940 31.895962 32.985204 -44.955246 -32.298202 -115.460105 66.014043 -106.521563 4.083619 -5.023725 5.953662 -0.008528 -0.395668 0.044268 -13.767733 -52.804772 12.960409 93.978054 78.845097 94.696872 -5.311331 1.059621 -11.024425 0.133608 0.319059 0.021854
